# xmcd
#
# Track frame offsets:
#	150
#	10448
#	21552
#	33886
#	44219
#	54909
#	66549
#	76722
#	86475
#	97308
#	107063
#	115565
#	126015
#	136144
#	147633
#	159029
#	169284
#	181863
#	194731
#	205058
#	212118
#	223528
#	235104
#	243415
#	252932
#
# Disc length: 3479 seconds
#
# Revision: 0
# Processed by: cddbd v1.5.2PL0 Copyright (c) Steve Scherf et al.
# Submitted via: EZCDAudioConverter 2.1.7.1
#
DISCID=6a0d9519
DTITLE=V/A - Rockin' Bones 3/4
DYEAR=2006
DGENRE=
TTITLE0=Carl Perkins - Blue Suede Shoes
TTITLE1=Joe Clay - Duck Tail
TTITLE2=Tom Tall - Stack-A-Records
TTITLE3=Jeff Daniels - Daddy-O-Rock
TTITLE4=Boyd Bennett - Move
TTITLE5=Vince Taylor - Brand New Cadillac
TTITLE6=Kip Tyler - Rumble Rock
TTITLE7=Larry Terry - Hep Cat
TTITLE8=Peanuts Wilson - Cast Iron Arm
TTITLE9=Jeff Daniels - Switch Blade Sam
TTITLE10=Bobby and Terry Caraway - Ballin' Keen
TTITLE11=Sonny West - Sweet Rockin' Baby
TTITLE12=Johnny Cash - Get Rhythm
TTITLE13=Johnny Burnette - Rock Billy Boogie
TTITLE14=The Rockin' R's - Crazy Baby
TTITLE15=Dale Hawkins - Susie-Q
TTITLE16=Maylon Humphries - Worried 'Bout You Baby
TTITLE17=The Phaetons - I Love My Baby
TTITLE18=Ray Harris - Come On Little Mama
TTITLE19=Lorrie and Larry Collins - Whistle Bait
TTITLE20=Benny Joy - Spin The Bottle
TTITLE21=Dorsey Burnette - Bertha Lou
TTITLE22=Jim Flaherty's Caravan - Real Gone Daddy
TTITLE23=Hal Willis - My Pink Cadillac
TTITLE24=Curtis Gordon - Draggin'
EXTD=
EXTT0=
EXTT1=
EXTT2=
EXTT3=
EXTT4=
EXTT5=
EXTT6=
EXTT7=
EXTT8=
EXTT9=
EXTT10=
EXTT11=
EXTT12=
EXTT13=
EXTT14=
EXTT15=
EXTT16=
EXTT17=
EXTT18=
EXTT19=
EXTT20=
EXTT21=
EXTT22=
EXTT23=
EXTT24=
PLAYORDER=
